<?xml version="1.0" standalone="no"?>
<!DOCTYPE svg PUBLIC "-//W3C//DTD SVG 20010904//EN"
 "http://www.w3.org/TR/2001/REC-SVG-20010904/DTD/svg10.dtd">
<svg version="1.0" xmlns="http://www.w3.org/2000/svg"
 width="800.000000pt" height="1280.000000pt" viewBox="0 0 800.000000 1280.000000"
 preserveAspectRatio="xMidYMid meet">
<metadata>
Created by potrace 1.15, written by Peter Selinger 2001-2017
</metadata>
<g transform="translate(0.000000,1280.000000) scale(0.100000,-0.100000)"
fill="#000000" stroke="none">
<path d="M3846 12579 c-85 -29 -167 -89 -280 -203 -115 -117 -199 -238 -292
-416 -18 -34 -59 -84 -105 -128 -88 -83 -137 -165 -168 -282 -36 -137 -36
-147 3 -238 l35 -82 -10 -87 c-6 -48 -9 -121 -7 -164 3 -70 6 -81 33 -110 17
-17 45 -38 63 -45 31 -14 32 -17 32 -72 0 -60 22 -119 59 -161 11 -13 22 -30
22 -38 1 -7 2 -16 3 -21 0 -4 16 -38 34 -75 30 -60 33 -74 30 -137 -3 -53 -1
-70 9 -70 8 0 13 13 13 33 0 24 3 28 10 17 7 -11 12 -12 21 -3 6 6 18 9 27 6
12 -5 14 -1 10 15 -6 21 16 51 28 39 16 -16 21 -77 8 -94 -13 -17 -14 -17 -7
1 10 31 -18 14 -37 -22 -10 -17 -23 -39 -30 -47 -11 -13 -10 -14 4 -9 22 9 20
-4 -8 -40 -28 -38 -59 -96 -53 -102 2 -2 23 25 47 62 29 45 45 62 50 53 6 -8
18 7 38 47 25 53 29 71 28 142 -1 68 1 79 12 65 6 -9 12 -26 12 -37 0 -15 3
-17 11 -9 11 11 30 4 109 -36 8 -5 23 -3 32 3 9 5 20 8 23 4 9 -9 27 -145 23
-176 -3 -24 -5 -21 -22 23 -31 84 -35 93 -29 55 3 -19 18 -64 33 -100 19 -43
30 -92 35 -148 l7 -82 -30 -13 c-17 -7 -46 -27 -65 -44 -113 -103 -167 -128
-377 -175 -243 -54 -414 -169 -488 -328 -23 -50 -26 -67 -26 -180 -1 -113 15
-361 30 -467 l6 -43 -124 -127 c-98 -101 -131 -142 -156 -195 -65 -137 -70
-166 -68 -353 2 -154 5 -178 30 -259 56 -179 92 -235 198 -307 l58 -40 -6 -42
c-36 -254 -52 -308 -160 -527 -72 -147 -119 -278 -155 -428 -43 -183 -56 -231
-106 -387 -68 -214 -163 -496 -178 -530 -7 -16 -27 -77 -45 -135 -17 -58 -36
-121 -42 -140 -17 -54 -92 -247 -128 -325 -57 -127 -153 -249 -372 -470 -81
-82 -160 -168 -175 -190 -15 -22 -44 -84 -65 -137 -21 -54 -51 -122 -68 -151
-29 -51 -30 -59 -30 -168 0 -80 6 -139 20 -195 10 -43 20 -90 22 -104 4 -32
28 -36 59 -11 23 18 24 25 24 135 0 79 4 119 13 127 10 11 12 10 12 -2 0 -9
11 -38 25 -65 14 -27 37 -76 51 -108 14 -32 44 -83 67 -113 23 -30 56 -73 72
-96 17 -22 36 -42 42 -44 7 -3 19 11 27 31 16 39 9 81 -26 149 -11 22 -17 41
-14 44 5 6 46 -20 108 -69 22 -18 30 -19 43 -8 33 27 14 92 -44 148 -46 44
-72 96 -43 85 9 -4 42 -24 74 -45 70 -47 98 -50 98 -10 0 33 -19 62 -71 109
-20 18 -44 49 -54 69 l-16 35 39 57 c21 31 58 86 82 122 61 90 110 149 216
261 99 105 124 147 153 259 10 41 44 129 75 195 31 66 64 138 74 159 41 93
233 469 284 556 30 52 102 169 158 260 57 91 122 197 144 237 23 40 44 72 47
73 46 2 -17 -250 -111 -450 -66 -141 -94 -230 -115 -374 -22 -140 -42 -235
-75 -356 -60 -217 -82 -353 -85 -525 -2 -105 -8 -184 -19 -230 -10 -41 -17
-120 -18 -185 -2 -120 8 -422 17 -500 2 -25 7 -135 10 -245 10 -389 14 -428
111 -1140 6 -43 27 -177 43 -265 12 -68 68 -297 109 -445 40 -143 89 -397 97
-505 3 -47 19 -161 35 -255 17 -93 37 -210 45 -260 9 -50 30 -127 47 -172 l31
-83 413 0 c228 0 414 2 414 4 0 2 -11 28 -24 57 -41 89 -50 172 -32 271 33
173 37 339 16 551 -20 201 -6 468 36 682 22 112 82 357 90 364 3 3 2 -79 -3
-184 -10 -246 -7 -784 7 -947 14 -162 96 -580 147 -746 l16 -52 599 0 599 0
-56 65 c-63 75 -118 178 -142 268 -22 80 -21 340 1 522 21 176 97 574 156 825
50 208 76 339 149 755 23 127 53 291 67 365 13 74 36 221 49 325 14 105 25
190 25 191 0 1 23 15 51 33 53 33 180 71 236 71 37 0 93 24 93 40 0 6 12 10
28 10 39 0 214 182 237 248 14 38 19 107 25 352 9 322 18 391 60 448 14 19 29
74 46 167 14 77 47 235 74 350 26 116 58 271 69 345 12 74 39 214 61 310 42
192 71 375 95 604 33 326 20 400 -132 733 -40 90 -89 202 -108 249 -36 90
-115 393 -115 442 0 16 -9 46 -19 68 -11 22 -22 69 -25 104 -7 80 -35 189 -53
211 -13 15 -36 106 -78 299 -7 36 -21 121 -30 190 -23 174 -61 365 -92 457
-38 116 -114 281 -160 349 -108 158 -288 271 -478 299 -108 17 -301 108 -353
167 -43 49 -111 88 -153 88 -48 0 -57 15 -30 51 11 15 21 34 21 41 0 6 -7 3
-15 -8 -11 -14 -14 -15 -15 -4 0 12 -2 13 -9 1 -5 -7 -6 -23 -3 -35 5 -21 5
-21 -16 -2 -26 23 -28 43 -5 68 11 12 12 18 4 18 -7 0 1 18 18 39 18 23 31 51
31 67 0 30 25 111 40 129 4 5 14 39 22 75 11 55 20 71 55 105 30 29 43 51 48
80 13 82 11 80 57 83 23 1 47 7 53 12 7 6 14 7 17 4 8 -7 61 20 78 41 8 10 15
65 20 163 4 81 12 157 18 169 15 27 16 172 2 208 -7 17 -7 24 0 20 6 -3 10
-12 10 -20 0 -7 6 -15 14 -18 12 -5 12 2 1 45 -8 27 -17 53 -21 57 -3 3 -3 -5
1 -19 8 -25 7 -25 -13 -7 -26 23 -35 57 -16 57 8 0 14 -5 14 -12 0 -6 3 -9 6
-5 4 3 0 23 -8 44 -9 21 -19 64 -22 96 -4 31 -12 57 -17 57 -6 0 -8 10 -4 23
5 16 4 18 -3 8 -8 -11 -14 -1 -26 39 -9 30 -16 66 -16 82 0 64 -162 445 -224
528 -23 30 -58 80 -78 111 -54 81 -146 163 -213 188 -92 35 -227 54 -325 46
-62 -5 -103 -2 -150 9 -94 23 -231 20 -304 -5z m-760 -1045 c-3 -20 -7 -39
-10 -42 -8 -7 -8 42 0 62 10 27 14 18 10 -20z m-39 -81 c-3 -10 -5 -4 -5 12 0
17 2 24 5 18 2 -7 2 -21 0 -30z m24 -36 c-8 -8 -11 -4 -11 14 0 33 14 47 18
19 2 -12 -1 -27 -7 -33z m209 -388 c0 -11 -4 -17 -10 -14 -5 3 -10 13 -10 21
0 8 5 14 10 14 6 0 10 -9 10 -21z m-115 -8 c3 -5 1 -12 -5 -16 -5 -3 -10 1
-10 9 0 18 6 21 15 7z m15 -63 c0 -18 -2 -20 -9 -8 -6 8 -7 18 -5 22 9 14 14
9 14 -14z m115 -416 c6 -4 10 -14 9 -22 0 -8 -2 -23 -2 -34 -2 -16 -4 -16 -27
5 -13 13 -25 31 -24 39 0 10 6 8 20 -9 11 -13 23 -21 27 -17 4 4 -1 12 -11 17
-9 6 -17 14 -17 19 0 12 11 13 25 2z m302 -58 c-3 -3 -12 -4 -19 -1 -8 3 -5 6
6 6 11 1 17 -2 13 -5z m-148 -139 c0 -30 -15 1 -23 45 l-6 35 15 -30 c8 -16
14 -39 14 -50z m1435 60 c-6 -16 -24 -21 -24 -7 0 11 11 22 21 22 5 0 6 -7 3
-15z m-1492 -37 c-7 -7 -12 -8 -12 -2 0 14 12 26 19 19 2 -3 -1 -11 -7 -17z
m1358 -128 c0 -5 -2 -10 -4 -10 -3 0 -8 5 -11 10 -3 6 -1 10 4 10 6 0 11 -4
11 -10z m-1360 -30 c-6 -12 -14 -20 -17 -17 -2 3 1 14 8 26 17 26 24 19 9 -9z
m1380 -95 c-7 -9 -15 -13 -17 -11 -7 7 7 26 19 26 6 0 6 -6 -2 -15z m-10 -45
c0 -5 -2 -10 -4 -10 -3 0 -8 5 -11 10 -3 6 -1 10 4 10 6 0 11 -4 11 -10z m699
-1877 c12 -43 39 -139 61 -213 25 -88 38 -153 37 -185 -2 -65 57 -225 83 -225
13 0 27 -30 58 -122 22 -68 63 -188 90 -268 28 -80 64 -212 81 -295 18 -82 43
-195 56 -250 14 -55 42 -190 64 -300 35 -182 40 -220 45 -415 3 -118 9 -228
12 -245 3 -16 7 -124 7 -240 2 -277 -12 -345 -125 -602 -38 -85 -44 -95 -102
-134 -33 -24 -81 -59 -106 -79 -25 -21 -58 -44 -75 -52 l-29 -16 -41 167 c-23
91 -50 199 -59 240 -10 41 -46 142 -81 225 -35 83 -82 214 -106 290 -23 77
-62 187 -86 245 -25 58 -47 117 -51 131 -3 14 -18 46 -34 71 -81 133 -138 293
-153 432 -6 59 -11 70 -31 79 -19 9 -24 19 -24 51 0 45 61 234 90 283 11 17
24 51 29 75 5 24 23 84 41 134 37 107 189 672 225 837 14 65 34 175 46 245 24
149 38 213 49 213 4 0 17 -35 29 -77z m234 -3969 c75 -38 117 -98 117 -167 0
-24 7 -67 16 -96 8 -30 13 -64 10 -76 -3 -12 -10 -54 -16 -93 -7 -49 -19 -85
-41 -121 -43 -69 -69 -75 -118 -27 l-38 37 10 57 c5 31 10 157 11 279 1 123 5
223 9 223 4 0 22 -7 40 -16z"/>
<path d="M3355 10098 c-16 -24 -22 -38 -14 -31 15 12 53 73 46 73 -2 0 -17
-19 -32 -42z"/>
<path d="M4800 10100 c0 -5 5 -10 10 -10 6 0 10 5 10 10 0 6 -4 10 -10 10 -5
0 -10 -4 -10 -10z"/>
<path d="M4845 10081 c-3 -5 -1 -12 5 -16 5 -3 10 1 10 9 0 18 -6 21 -15 7z"/>
<path d="M3315 10039 c-4 -6 -14 -8 -22 -5 -20 8 -33 -2 -26 -19 8 -22 26 -18
46 10 10 14 16 25 13 25 -3 0 -8 -5 -11 -11z"/>
<path d="M3237 9993 c-4 -3 -7 -11 -7 -17 0 -6 5 -5 12 2 6 6 9 14 7 17 -3 3
-9 2 -12 -2z"/>
</g>
</svg>
